<svg width="290" height="47" viewBox="0 0 290 47" fill="none" xmlns="http://www.w3.org/2000/svg">
<rect width="290" height="47" fill="black"/>
<path d="M112.432 32.192C110.928 32.192 109.696 31.848 108.736 31.16C107.792 30.456 107.264 29.504 107.152 28.304H108.88C108.96 29.04 109.304 29.64 109.912 30.104C110.536 30.552 111.368 30.776 112.408 30.776C113.32 30.776 114.032 30.56 114.544 30.128C115.072 29.696 115.336 29.16 115.336 28.52C115.336 28.072 115.192 27.704 114.904 27.416C114.616 27.128 114.248 26.904 113.8 26.744C113.368 26.568 112.776 26.384 112.024 26.192C111.048 25.936 110.256 25.68 109.648 25.424C109.04 25.168 108.52 24.792 108.088 24.296C107.672 23.784 107.464 23.104 107.464 22.256C107.464 21.616 107.656 21.024 108.04 20.48C108.424 19.936 108.968 19.504 109.672 19.184C110.376 18.864 111.176 18.704 112.072 18.704C113.48 18.704 114.616 19.064 115.48 19.784C116.344 20.488 116.808 21.464 116.872 22.712H115.192C115.144 21.944 114.84 21.328 114.28 20.864C113.736 20.384 112.984 20.144 112.024 20.144C111.176 20.144 110.488 20.344 109.96 20.744C109.432 21.144 109.168 21.64 109.168 22.232C109.168 22.744 109.32 23.168 109.624 23.504C109.944 23.824 110.336 24.08 110.8 24.272C111.264 24.448 111.888 24.648 112.672 24.872C113.616 25.128 114.368 25.376 114.928 25.616C115.488 25.856 115.968 26.208 116.368 26.672C116.768 27.136 116.976 27.752 116.992 28.52C116.992 29.224 116.8 29.856 116.416 30.416C116.032 30.96 115.496 31.392 114.808 31.712C114.12 32.032 113.328 32.192 112.432 32.192ZM120.994 16.424C120.658 16.424 120.37 16.304 120.13 16.064C119.89 15.824 119.77 15.528 119.77 15.176C119.77 14.824 119.89 14.536 120.13 14.312C120.37 14.072 120.658 13.952 120.994 13.952C121.33 13.952 121.618 14.072 121.858 14.312C122.098 14.536 122.218 14.824 122.218 15.176C122.218 15.528 122.098 15.824 121.858 16.064C121.618 16.304 121.33 16.424 120.994 16.424ZM121.834 18.896V32H120.154V18.896H121.834ZM131.135 18.704C132.367 18.704 133.439 18.992 134.351 19.568C135.263 20.144 135.919 20.872 136.319 21.752V18.896H137.999V32.336C137.999 33.536 137.735 34.6 137.207 35.528C136.695 36.456 135.975 37.168 135.047 37.664C134.119 38.176 133.063 38.432 131.879 38.432C130.199 38.432 128.799 38.032 127.679 37.232C126.575 36.432 125.887 35.344 125.615 33.968H127.271C127.559 34.88 128.103 35.608 128.903 36.152C129.719 36.696 130.711 36.968 131.879 36.968C132.727 36.968 133.487 36.784 134.159 36.416C134.831 36.064 135.359 35.536 135.743 34.832C136.127 34.128 136.319 33.296 136.319 32.336V29.096C135.903 29.992 135.239 30.736 134.327 31.328C133.431 31.904 132.367 32.192 131.135 32.192C129.935 32.192 128.855 31.912 127.895 31.352C126.951 30.792 126.207 30 125.663 28.976C125.135 27.952 124.871 26.768 124.871 25.424C124.871 24.08 125.135 22.904 125.663 21.896C126.207 20.872 126.951 20.088 127.895 19.544C128.855 18.984 129.935 18.704 131.135 18.704ZM136.319 25.448C136.319 24.392 136.103 23.464 135.671 22.664C135.239 21.864 134.647 21.248 133.895 20.816C133.159 20.384 132.343 20.168 131.447 20.168C130.519 20.168 129.687 20.376 128.951 20.792C128.215 21.208 127.631 21.816 127.199 22.616C126.783 23.4 126.575 24.336 126.575 25.424C126.575 26.496 126.783 27.44 127.199 28.256C127.631 29.056 128.215 29.672 128.951 30.104C129.687 30.52 130.519 30.728 131.447 30.728C132.343 30.728 133.159 30.512 133.895 30.08C134.647 29.648 135.239 29.032 135.671 28.232C136.103 27.432 136.319 26.504 136.319 25.448ZM147.978 18.656C149.546 18.656 150.826 19.144 151.818 20.12C152.81 21.08 153.306 22.48 153.306 24.32V32H151.65V24.512C151.65 23.088 151.29 22 150.57 21.248C149.866 20.496 148.898 20.12 147.666 20.12C146.402 20.12 145.394 20.52 144.642 21.32C143.89 22.12 143.514 23.296 143.514 24.848V32H141.834V18.896H143.514V21.128C143.93 20.328 144.53 19.72 145.314 19.304C146.098 18.872 146.986 18.656 147.978 18.656ZM164.448 16.424C164.112 16.424 163.824 16.304 163.584 16.064C163.344 15.824 163.224 15.528 163.224 15.176C163.224 14.824 163.344 14.536 163.584 14.312C163.824 14.072 164.112 13.952 164.448 13.952C164.784 13.952 165.072 14.072 165.312 14.312C165.552 14.536 165.672 14.824 165.672 15.176C165.672 15.528 165.552 15.824 165.312 16.064C165.072 16.304 164.784 16.424 164.448 16.424ZM165.288 18.896V32H163.608V18.896H165.288ZM175.236 18.656C176.804 18.656 178.084 19.144 179.076 20.12C180.068 21.08 180.564 22.48 180.564 24.32V32H178.908V24.512C178.908 23.088 178.548 22 177.828 21.248C177.124 20.496 176.156 20.12 174.924 20.12C173.66 20.12 172.652 20.52 171.9 21.32C171.148 22.12 170.772 23.296 170.772 24.848V32H169.092V18.896H170.772V21.128C171.188 20.328 171.788 19.72 172.572 19.304C173.356 18.872 174.244 18.656 175.236 18.656Z" fill="white"/>
</svg>
